<?xml version="1.0" encoding="utf-8"?>
<svg width="180px" height="180px" viewBox="0 0 180 180" version="1.1" xmlns:xlink="http://www.w3.org/1999/xlink" xmlns="http://www.w3.org/2000/svg">
  <g id="safari-pinned-tab">
    <path d="M35.999 0L144.001 0Q144.885 0 145.767 0.0433624Q146.65 0.0867247 147.53 0.173345Q148.409 0.259965 149.283 0.389635Q150.157 0.519304 151.024 0.691711Q151.891 0.864117 152.748 1.07884Q153.605 1.29357 154.451 1.5501Q155.297 1.80664 156.129 2.10436Q156.961 2.40207 157.777 2.74026Q158.594 3.07845 159.393 3.45629Q160.191 3.83413 160.971 4.25072Q161.75 4.6673 162.508 5.12163Q163.266 5.57595 164.001 6.06692Q164.736 6.5579 165.446 7.08433Q166.155 7.61077 166.839 8.1714Q167.522 8.73203 168.176 9.3255Q168.831 9.91897 169.456 10.5439Q170.081 11.1688 170.674 11.8235Q171.268 12.4783 171.829 13.1615Q172.389 13.8446 172.916 14.5544Q173.442 15.2642 173.933 15.999Q174.424 16.7338 174.878 17.4918Q175.333 18.2498 175.749 19.0292Q176.166 19.8086 176.544 20.6074Q176.922 21.4063 177.26 22.2228Q177.598 23.0392 177.896 23.8713Q178.193 24.7034 178.45 25.549Q178.706 26.3947 178.921 27.252Q179.136 28.1092 179.308 28.9759Q179.481 29.8427 179.61 30.7168Q179.74 31.591 179.827 32.4705Q179.913 33.3499 179.957 34.2326Q180 35.1153 180 35.999L180 144.001Q180 144.885 179.957 145.767Q179.913 146.65 179.827 147.53Q179.74 148.409 179.61 149.283Q179.481 150.157 179.308 151.024Q179.136 151.891 178.921 152.748Q178.706 153.605 178.45 154.451Q178.193 155.297 177.896 156.129Q177.598 156.961 177.26 157.777Q176.922 158.594 176.544 159.393Q176.166 160.191 175.749 160.971Q175.333 161.75 174.878 162.508Q174.424 163.266 173.933 164.001Q173.442 164.736 172.916 165.446Q172.389 166.155 171.829 166.839Q171.268 167.522 170.674 168.176Q170.081 168.831 169.456 169.456Q168.831 170.081 168.176 170.674Q167.522 171.268 166.839 171.829Q166.155 172.389 165.446 172.916Q164.736 173.442 164.001 173.933Q163.266 174.424 162.508 174.878Q161.75 175.333 160.971 175.749Q160.191 176.166 159.393 176.544Q158.594 176.922 157.777 177.26Q156.961 177.598 156.129 177.896Q155.297 178.193 154.451 178.45Q153.605 178.706 152.748 178.921Q151.891 179.136 151.024 179.308Q150.157 179.481 149.283 179.61Q148.409 179.74 147.53 179.827Q146.65 179.913 145.767 179.957Q144.885 180 144.001 180L35.999 180Q35.1153 180 34.2326 179.957Q33.3499 179.913 32.4705 179.827Q31.591 179.74 30.7168 179.61Q29.8427 179.481 28.9759 179.308Q28.1092 179.136 27.252 178.921Q26.3947 178.706 25.549 178.45Q24.7034 178.193 23.8713 177.896Q23.0392 177.598 22.2228 177.26Q21.4063 176.922 20.6074 176.544Q19.8086 176.166 19.0292 175.749Q18.2498 175.333 17.4918 174.878Q16.7338 174.424 15.999 173.933Q15.2642 173.442 14.5544 172.916Q13.8446 172.389 13.1615 171.829Q12.4783 171.268 11.8235 170.674Q11.1688 170.081 10.5439 169.456Q9.91897 168.831 9.3255 168.176Q8.73203 167.522 8.1714 166.839Q7.61077 166.155 7.08433 165.446Q6.5579 164.736 6.06693 164.001Q5.57595 163.266 5.12163 162.508Q4.6673 161.75 4.25072 160.971Q3.83413 160.191 3.45629 159.393Q3.07845 158.594 2.74026 157.777Q2.40207 156.961 2.10436 156.129Q1.80664 155.297 1.5501 154.451Q1.29357 153.605 1.07884 152.748Q0.864117 151.891 0.691711 151.024Q0.519304 150.157 0.389635 149.283Q0.259965 148.409 0.173345 147.53Q0.0867247 146.65 0.0433624 145.767Q0 144.885 0 144.001L0 35.999Q0 35.1153 0.0433624 34.2326Q0.0867247 33.3499 0.173345 32.4705Q0.259965 31.591 0.389635 30.7168Q0.519304 29.8427 0.691711 28.9759Q0.864117 28.1092 1.07884 27.252Q1.29357 26.3947 1.5501 25.549Q1.80664 24.7034 2.10436 23.8713Q2.40207 23.0392 2.74026 22.2228Q3.07845 21.4063 3.45629 20.6074Q3.83413 19.8086 4.25072 19.0292Q4.6673 18.2498 5.12163 17.4918Q5.57595 16.7338 6.06692 15.999Q6.5579 15.2642 7.08433 14.5544Q7.61077 13.8446 8.1714 13.1615Q8.73203 12.4783 9.3255 11.8235Q9.91897 11.1688 10.5439 10.5439Q11.1688 9.91897 11.8235 9.3255Q12.4783 8.73203 13.1615 8.1714Q13.8446 7.61077 14.5544 7.08433Q15.2642 6.5579 15.999 6.06693Q16.7338 5.57595 17.4918 5.12163Q18.2498 4.6673 19.0292 4.25072Q19.8086 3.83413 20.6074 3.45629Q21.4063 3.07845 22.2228 2.74026Q23.0392 2.40207 23.8713 2.10436Q24.7034 1.80664 25.549 1.5501Q26.3947 1.29357 27.252 1.07884Q28.1092 0.864117 28.9759 0.691711Q29.8427 0.519304 30.7168 0.389635Q31.591 0.259965 32.4705 0.173345Q33.3499 0.0867247 34.2326 0.0433624Q35.1153 0 35.999 0L35.999 0Z" id="Rectangle-10" fill="#1F1F1F" fill-rule="evenodd" stroke="none" />
    <g stroke="#7F8183" stroke-width="4" id="M" fill="#FFFFFF" transform="translate(27.65625 13.125)">
      <path d="M34 85.5116L28.73 121.382Q28.305 124.102 26.9875 126.312Q25.67 128.522 23.6725 130.009Q21.675 131.497 19.125 132.177Q16.575 132.857 13.855 132.432Q11.135 132.007 8.9675 130.689Q6.8 129.372 5.27 127.374Q3.74 125.377 3.06 122.869Q2.38 120.362 2.72 117.642L14.875 35.6166Q15.215 32.5566 17 30.1766Q19.21 26.5216 23.46 24.8216Q25.925 23.8016 28.475 23.8441Q31.025 23.8866 33.32 24.8641Q35.615 25.8416 37.485 27.6266Q39.355 29.4116 40.46 31.8766L62.305 85.1716L83.895 31.8766Q84.915 29.4116 86.7425 27.6266Q88.57 25.8416 90.865 24.9066Q93.16 23.9716 95.71 23.8866Q98.26 23.8016 100.725 24.8216Q102.595 25.5866 104.125 26.8616Q106.335 28.3066 107.738 30.6016Q109.14 32.8966 109.48 35.7016L120.53 118.067Q120.87 120.787 120.105 123.294Q119.34 125.802 117.768 127.757Q116.195 129.712 113.943 130.987Q111.69 132.262 108.97 132.517Q106.25 132.857 103.785 132.177Q101.32 131.497 99.3225 130.009Q97.325 128.522 96.0075 126.269Q94.69 124.017 94.35 121.297L89.675 86.4466L74.205 124.357Q73.27 126.567 71.6975 128.224Q70.125 129.882 68.17 130.902Q66.215 131.922 64.005 132.262Q61.795 132.602 59.5 132.177Q56.44 131.582 53.89 129.584Q51.34 127.587 49.895 124.357L34 85.5116Z" />
    </g>
  </g>
</svg>